<mxfile host="app.diagrams.net" modified="2020-09-24T01:46:09.656Z" agent="5.0 (Windows NT 10.0; Win64; x64) AppleWebKit/537.36 (KHTML, like Gecko) Chrome/85.0.4183.102 Safari/537.36" etag="K9CCtihj5eX8YxASAPMt" version="13.7.5" type="github">
  <diagram id="-VUquBzPuUQYV2Vf01s0" name="Page-1">
    <mxGraphModel dx="1422" dy="762" grid="1" gridSize="10" guides="1" tooltips="1" connect="1" arrows="1" fold="1" page="1" pageScale="1" pageWidth="827" pageHeight="1169" math="0" shadow="0">
      <root>
        <mxCell id="0" />
        <mxCell id="1" parent="0" />
        <mxCell id="R4jxrmjICBG2XdQICs0V-1" value="客户端" style="rounded=1;whiteSpace=wrap;html=1;" vertex="1" parent="1">
          <mxGeometry x="10" y="130" width="90" height="40" as="geometry" />
        </mxCell>
        <mxCell id="R4jxrmjICBG2XdQICs0V-2" value="客户端" style="rounded=1;whiteSpace=wrap;html=1;" vertex="1" parent="1">
          <mxGeometry x="10" y="320" width="90" height="40" as="geometry" />
        </mxCell>
        <mxCell id="R4jxrmjICBG2XdQICs0V-3" value="客户端" style="rounded=1;whiteSpace=wrap;html=1;" vertex="1" parent="1">
          <mxGeometry x="10" y="220" width="90" height="40" as="geometry" />
        </mxCell>
        <mxCell id="R4jxrmjICBG2XdQICs0V-4" value="" style="rounded=1;whiteSpace=wrap;html=1;" vertex="1" parent="1">
          <mxGeometry x="250" y="30" width="160" height="110" as="geometry" />
        </mxCell>
        <mxCell id="R4jxrmjICBG2XdQICs0V-5" value="BossGroup" style="text;html=1;strokeColor=none;fillColor=none;align=center;verticalAlign=middle;whiteSpace=wrap;rounded=0;" vertex="1" parent="1">
          <mxGeometry x="300" y="30" width="40" height="20" as="geometry" />
        </mxCell>
        <mxCell id="R4jxrmjICBG2XdQICs0V-6" value="" style="rounded=1;whiteSpace=wrap;html=1;" vertex="1" parent="1">
          <mxGeometry x="260" y="60" width="140" height="70" as="geometry" />
        </mxCell>
        <mxCell id="R4jxrmjICBG2XdQICs0V-7" value="NioEventLoopGroup" style="text;html=1;strokeColor=none;fillColor=none;align=center;verticalAlign=middle;whiteSpace=wrap;rounded=0;" vertex="1" parent="1">
          <mxGeometry x="295" y="70" width="70" height="20" as="geometry" />
        </mxCell>
        <mxCell id="R4jxrmjICBG2XdQICs0V-8" value="Selector" style="rounded=1;whiteSpace=wrap;html=1;" vertex="1" parent="1">
          <mxGeometry x="270" y="100" width="60" height="20" as="geometry" />
        </mxCell>
        <mxCell id="R4jxrmjICBG2XdQICs0V-9" value="TaskQueue" style="rounded=1;whiteSpace=wrap;html=1;" vertex="1" parent="1">
          <mxGeometry x="340" y="100" width="50" height="20" as="geometry" />
        </mxCell>
        <mxCell id="R4jxrmjICBG2XdQICs0V-10" value="" style="endArrow=classic;html=1;exitX=0.5;exitY=1;exitDx=0;exitDy=0;" edge="1" parent="1" source="R4jxrmjICBG2XdQICs0V-4">
          <mxGeometry width="50" height="50" relative="1" as="geometry">
            <mxPoint x="390" y="420" as="sourcePoint" />
            <mxPoint x="330" y="240" as="targetPoint" />
          </mxGeometry>
        </mxCell>
        <mxCell id="R4jxrmjICBG2XdQICs0V-11" value="" style="ellipse;whiteSpace=wrap;html=1;aspect=fixed;" vertex="1" parent="1">
          <mxGeometry x="300" y="240" width="60" height="60" as="geometry" />
        </mxCell>
        <mxCell id="R4jxrmjICBG2XdQICs0V-12" value="Step1" style="text;html=1;strokeColor=none;fillColor=none;align=center;verticalAlign=middle;whiteSpace=wrap;rounded=0;" vertex="1" parent="1">
          <mxGeometry x="310" y="240" width="40" height="20" as="geometry" />
        </mxCell>
        <mxCell id="R4jxrmjICBG2XdQICs0V-13" value="Select" style="text;html=1;strokeColor=none;fillColor=none;align=center;verticalAlign=middle;whiteSpace=wrap;rounded=0;" vertex="1" parent="1">
          <mxGeometry x="310" y="260" width="40" height="20" as="geometry" />
        </mxCell>
        <mxCell id="R4jxrmjICBG2XdQICs0V-14" value="" style="ellipse;whiteSpace=wrap;html=1;aspect=fixed;" vertex="1" parent="1">
          <mxGeometry x="390" y="350" width="70" height="70" as="geometry" />
        </mxCell>
        <mxCell id="R4jxrmjICBG2XdQICs0V-15" value="Step2" style="text;html=1;strokeColor=none;fillColor=none;align=center;verticalAlign=middle;whiteSpace=wrap;rounded=0;" vertex="1" parent="1">
          <mxGeometry x="405" y="351" width="40" height="20" as="geometry" />
        </mxCell>
        <mxCell id="R4jxrmjICBG2XdQICs0V-16" value="Process&lt;br&gt;Selected&lt;br&gt;Keys" style="text;html=1;strokeColor=none;fillColor=none;align=center;verticalAlign=middle;whiteSpace=wrap;rounded=0;" vertex="1" parent="1">
          <mxGeometry x="405" y="381" width="40" height="20" as="geometry" />
        </mxCell>
        <mxCell id="R4jxrmjICBG2XdQICs0V-17" value="" style="ellipse;whiteSpace=wrap;html=1;aspect=fixed;" vertex="1" parent="1">
          <mxGeometry x="206" y="346" width="66" height="66" as="geometry" />
        </mxCell>
        <mxCell id="R4jxrmjICBG2XdQICs0V-18" value="Step3" style="text;html=1;strokeColor=none;fillColor=none;align=center;verticalAlign=middle;whiteSpace=wrap;rounded=0;" vertex="1" parent="1">
          <mxGeometry x="220" y="350" width="40" height="20" as="geometry" />
        </mxCell>
        <mxCell id="R4jxrmjICBG2XdQICs0V-19" value="RunAllTask" style="text;html=1;strokeColor=none;fillColor=none;align=center;verticalAlign=middle;whiteSpace=wrap;rounded=0;" vertex="1" parent="1">
          <mxGeometry x="220" y="380" width="40" height="20" as="geometry" />
        </mxCell>
        <mxCell id="R4jxrmjICBG2XdQICs0V-20" value="" style="endArrow=classic;html=1;entryX=0.5;entryY=0;entryDx=0;entryDy=0;" edge="1" parent="1" target="R4jxrmjICBG2XdQICs0V-15">
          <mxGeometry width="50" height="50" relative="1" as="geometry">
            <mxPoint x="360" y="280" as="sourcePoint" />
            <mxPoint x="410" y="230" as="targetPoint" />
            <Array as="points">
              <mxPoint x="400" y="310" />
            </Array>
          </mxGeometry>
        </mxCell>
        <mxCell id="R4jxrmjICBG2XdQICs0V-21" value="" style="endArrow=classic;html=1;exitX=0;exitY=1;exitDx=0;exitDy=0;entryX=0.712;entryY=1;entryDx=0;entryDy=0;entryPerimeter=0;" edge="1" parent="1" source="R4jxrmjICBG2XdQICs0V-14" target="R4jxrmjICBG2XdQICs0V-17">
          <mxGeometry width="50" height="50" relative="1" as="geometry">
            <mxPoint x="300" y="490" as="sourcePoint" />
            <mxPoint x="350" y="440" as="targetPoint" />
            <Array as="points">
              <mxPoint x="330" y="430" />
            </Array>
          </mxGeometry>
        </mxCell>
        <mxCell id="R4jxrmjICBG2XdQICs0V-22" value="" style="endArrow=classic;html=1;exitX=0.25;exitY=0;exitDx=0;exitDy=0;entryX=0;entryY=0.5;entryDx=0;entryDy=0;" edge="1" parent="1" source="R4jxrmjICBG2XdQICs0V-18" target="R4jxrmjICBG2XdQICs0V-11">
          <mxGeometry width="50" height="50" relative="1" as="geometry">
            <mxPoint x="210" y="350" as="sourcePoint" />
            <mxPoint x="260" y="300" as="targetPoint" />
            <Array as="points">
              <mxPoint x="250" y="290" />
            </Array>
          </mxGeometry>
        </mxCell>
        <mxCell id="R4jxrmjICBG2XdQICs0V-23" value="NioEventLoop" style="text;html=1;strokeColor=none;fillColor=none;align=center;verticalAlign=middle;whiteSpace=wrap;rounded=0;" vertex="1" parent="1">
          <mxGeometry x="310" y="320" width="40" height="20" as="geometry" />
        </mxCell>
        <mxCell id="R4jxrmjICBG2XdQICs0V-25" value="" style="endArrow=classic;html=1;exitX=1;exitY=0;exitDx=0;exitDy=0;entryX=0;entryY=0.5;entryDx=0;entryDy=0;" edge="1" parent="1" source="R4jxrmjICBG2XdQICs0V-1" target="R4jxrmjICBG2XdQICs0V-4">
          <mxGeometry width="50" height="50" relative="1" as="geometry">
            <mxPoint x="110" y="140" as="sourcePoint" />
            <mxPoint x="160" y="90" as="targetPoint" />
          </mxGeometry>
        </mxCell>
        <mxCell id="R4jxrmjICBG2XdQICs0V-26" value="" style="endArrow=classic;html=1;exitX=1;exitY=0;exitDx=0;exitDy=0;entryX=0;entryY=0.75;entryDx=0;entryDy=0;" edge="1" parent="1" target="R4jxrmjICBG2XdQICs0V-4">
          <mxGeometry width="50" height="50" relative="1" as="geometry">
            <mxPoint x="100" y="235" as="sourcePoint" />
            <mxPoint x="250" y="190" as="targetPoint" />
          </mxGeometry>
        </mxCell>
        <mxCell id="R4jxrmjICBG2XdQICs0V-27" value="" style="endArrow=classic;html=1;exitX=1;exitY=0;exitDx=0;exitDy=0;" edge="1" parent="1">
          <mxGeometry width="50" height="50" relative="1" as="geometry">
            <mxPoint x="100" y="340" as="sourcePoint" />
            <mxPoint x="260" y="130" as="targetPoint" />
          </mxGeometry>
        </mxCell>
        <mxCell id="R4jxrmjICBG2XdQICs0V-29" value="" style="endArrow=classic;html=1;" edge="1" parent="1">
          <mxGeometry width="50" height="50" relative="1" as="geometry">
            <mxPoint x="380" y="270" as="sourcePoint" />
            <mxPoint x="440" y="330" as="targetPoint" />
            <Array as="points">
              <mxPoint x="420" y="290" />
            </Array>
          </mxGeometry>
        </mxCell>
        <mxCell id="R4jxrmjICBG2XdQICs0V-30" value="" style="rounded=1;whiteSpace=wrap;html=1;" vertex="1" parent="1">
          <mxGeometry x="590" y="30" width="170" height="120" as="geometry" />
        </mxCell>
        <mxCell id="R4jxrmjICBG2XdQICs0V-31" value="WorkGroup" style="text;html=1;strokeColor=none;fillColor=none;align=center;verticalAlign=middle;whiteSpace=wrap;rounded=0;" vertex="1" parent="1">
          <mxGeometry x="660" y="30" width="40" height="20" as="geometry" />
        </mxCell>
        <mxCell id="R4jxrmjICBG2XdQICs0V-32" value="" style="rounded=1;whiteSpace=wrap;html=1;" vertex="1" parent="1">
          <mxGeometry x="620" y="50" width="120" height="40" as="geometry" />
        </mxCell>
        <mxCell id="R4jxrmjICBG2XdQICs0V-33" value="NioEventLoopGroup" style="text;html=1;strokeColor=none;fillColor=none;align=center;verticalAlign=middle;whiteSpace=wrap;rounded=0;" vertex="1" parent="1">
          <mxGeometry x="660" y="50" width="40" height="20" as="geometry" />
        </mxCell>
        <mxCell id="R4jxrmjICBG2XdQICs0V-34" value="Select" style="text;html=1;strokeColor=none;fillColor=none;align=center;verticalAlign=middle;whiteSpace=wrap;rounded=0;" vertex="1" parent="1">
          <mxGeometry x="630" y="70" width="40" height="20" as="geometry" />
        </mxCell>
        <mxCell id="R4jxrmjICBG2XdQICs0V-35" value="TaskQueue" style="text;html=1;strokeColor=none;fillColor=none;align=center;verticalAlign=middle;whiteSpace=wrap;rounded=0;" vertex="1" parent="1">
          <mxGeometry x="680" y="70" width="40" height="20" as="geometry" />
        </mxCell>
        <mxCell id="R4jxrmjICBG2XdQICs0V-37" value="" style="rounded=1;whiteSpace=wrap;html=1;" vertex="1" parent="1">
          <mxGeometry x="620" y="100" width="120" height="40" as="geometry" />
        </mxCell>
        <mxCell id="R4jxrmjICBG2XdQICs0V-38" value="NioEventLoopGroup" style="text;html=1;strokeColor=none;fillColor=none;align=center;verticalAlign=middle;whiteSpace=wrap;rounded=0;" vertex="1" parent="1">
          <mxGeometry x="660" y="100" width="40" height="20" as="geometry" />
        </mxCell>
        <mxCell id="R4jxrmjICBG2XdQICs0V-39" value="Select" style="text;html=1;strokeColor=none;fillColor=none;align=center;verticalAlign=middle;whiteSpace=wrap;rounded=0;" vertex="1" parent="1">
          <mxGeometry x="630" y="120" width="40" height="20" as="geometry" />
        </mxCell>
        <mxCell id="R4jxrmjICBG2XdQICs0V-40" value="TaskQueue" style="text;html=1;strokeColor=none;fillColor=none;align=center;verticalAlign=middle;whiteSpace=wrap;rounded=0;" vertex="1" parent="1">
          <mxGeometry x="680" y="120" width="40" height="20" as="geometry" />
        </mxCell>
        <mxCell id="R4jxrmjICBG2XdQICs0V-41" value="" style="endArrow=classic;html=1;entryX=0.041;entryY=0.975;entryDx=0;entryDy=0;entryPerimeter=0;exitX=1;exitY=0.5;exitDx=0;exitDy=0;" edge="1" parent="1" source="R4jxrmjICBG2XdQICs0V-15" target="R4jxrmjICBG2XdQICs0V-30">
          <mxGeometry width="50" height="50" relative="1" as="geometry">
            <mxPoint x="405" y="320" as="sourcePoint" />
            <mxPoint x="455" y="270" as="targetPoint" />
          </mxGeometry>
        </mxCell>
        <mxCell id="R4jxrmjICBG2XdQICs0V-42" value="注册Channel到Selector中" style="text;html=1;strokeColor=none;fillColor=none;align=center;verticalAlign=middle;whiteSpace=wrap;rounded=0;" vertex="1" parent="1">
          <mxGeometry x="460" y="210" width="90" height="20" as="geometry" />
        </mxCell>
        <mxCell id="R4jxrmjICBG2XdQICs0V-43" value="" style="ellipse;whiteSpace=wrap;html=1;aspect=fixed;" vertex="1" parent="1">
          <mxGeometry x="642" y="245" width="60" height="60" as="geometry" />
        </mxCell>
        <mxCell id="R4jxrmjICBG2XdQICs0V-44" value="Step1" style="text;html=1;strokeColor=none;fillColor=none;align=center;verticalAlign=middle;whiteSpace=wrap;rounded=0;" vertex="1" parent="1">
          <mxGeometry x="652" y="245" width="40" height="20" as="geometry" />
        </mxCell>
        <mxCell id="R4jxrmjICBG2XdQICs0V-45" value="Select" style="text;html=1;strokeColor=none;fillColor=none;align=center;verticalAlign=middle;whiteSpace=wrap;rounded=0;" vertex="1" parent="1">
          <mxGeometry x="652" y="265" width="40" height="20" as="geometry" />
        </mxCell>
        <mxCell id="R4jxrmjICBG2XdQICs0V-46" value="" style="ellipse;whiteSpace=wrap;html=1;aspect=fixed;" vertex="1" parent="1">
          <mxGeometry x="732" y="355" width="70" height="70" as="geometry" />
        </mxCell>
        <mxCell id="R4jxrmjICBG2XdQICs0V-47" value="Step2" style="text;html=1;strokeColor=none;fillColor=none;align=center;verticalAlign=middle;whiteSpace=wrap;rounded=0;" vertex="1" parent="1">
          <mxGeometry x="747" y="356" width="40" height="20" as="geometry" />
        </mxCell>
        <mxCell id="R4jxrmjICBG2XdQICs0V-48" value="Process&lt;br&gt;Selected&lt;br&gt;Keys" style="text;html=1;strokeColor=none;fillColor=none;align=center;verticalAlign=middle;whiteSpace=wrap;rounded=0;" vertex="1" parent="1">
          <mxGeometry x="747" y="386" width="40" height="20" as="geometry" />
        </mxCell>
        <mxCell id="R4jxrmjICBG2XdQICs0V-49" value="" style="ellipse;whiteSpace=wrap;html=1;aspect=fixed;" vertex="1" parent="1">
          <mxGeometry x="548" y="351" width="66" height="66" as="geometry" />
        </mxCell>
        <mxCell id="R4jxrmjICBG2XdQICs0V-50" value="Step3" style="text;html=1;strokeColor=none;fillColor=none;align=center;verticalAlign=middle;whiteSpace=wrap;rounded=0;" vertex="1" parent="1">
          <mxGeometry x="562" y="355" width="40" height="20" as="geometry" />
        </mxCell>
        <mxCell id="R4jxrmjICBG2XdQICs0V-51" value="RunAllTask" style="text;html=1;strokeColor=none;fillColor=none;align=center;verticalAlign=middle;whiteSpace=wrap;rounded=0;" vertex="1" parent="1">
          <mxGeometry x="562" y="385" width="40" height="20" as="geometry" />
        </mxCell>
        <mxCell id="R4jxrmjICBG2XdQICs0V-52" value="" style="endArrow=classic;html=1;entryX=0.5;entryY=0;entryDx=0;entryDy=0;" edge="1" parent="1" target="R4jxrmjICBG2XdQICs0V-47">
          <mxGeometry width="50" height="50" relative="1" as="geometry">
            <mxPoint x="702" y="285" as="sourcePoint" />
            <mxPoint x="752" y="235" as="targetPoint" />
            <Array as="points">
              <mxPoint x="742" y="315" />
            </Array>
          </mxGeometry>
        </mxCell>
        <mxCell id="R4jxrmjICBG2XdQICs0V-53" value="" style="endArrow=classic;html=1;exitX=0;exitY=1;exitDx=0;exitDy=0;entryX=0.712;entryY=1;entryDx=0;entryDy=0;entryPerimeter=0;" edge="1" parent="1" source="R4jxrmjICBG2XdQICs0V-46" target="R4jxrmjICBG2XdQICs0V-49">
          <mxGeometry width="50" height="50" relative="1" as="geometry">
            <mxPoint x="642" y="495" as="sourcePoint" />
            <mxPoint x="692" y="445" as="targetPoint" />
            <Array as="points">
              <mxPoint x="672" y="435" />
            </Array>
          </mxGeometry>
        </mxCell>
        <mxCell id="R4jxrmjICBG2XdQICs0V-54" value="" style="endArrow=classic;html=1;exitX=0.25;exitY=0;exitDx=0;exitDy=0;entryX=0;entryY=0.5;entryDx=0;entryDy=0;" edge="1" parent="1" source="R4jxrmjICBG2XdQICs0V-50" target="R4jxrmjICBG2XdQICs0V-43">
          <mxGeometry width="50" height="50" relative="1" as="geometry">
            <mxPoint x="552" y="355" as="sourcePoint" />
            <mxPoint x="602" y="305" as="targetPoint" />
            <Array as="points">
              <mxPoint x="592" y="295" />
            </Array>
          </mxGeometry>
        </mxCell>
        <mxCell id="R4jxrmjICBG2XdQICs0V-55" value="NioEventLoop" style="text;html=1;strokeColor=none;fillColor=none;align=center;verticalAlign=middle;whiteSpace=wrap;rounded=0;" vertex="1" parent="1">
          <mxGeometry x="652" y="325" width="40" height="20" as="geometry" />
        </mxCell>
        <mxCell id="R4jxrmjICBG2XdQICs0V-56" value="" style="endArrow=classic;html=1;" edge="1" parent="1">
          <mxGeometry width="50" height="50" relative="1" as="geometry">
            <mxPoint x="722" y="275" as="sourcePoint" />
            <mxPoint x="782" y="335" as="targetPoint" />
            <Array as="points">
              <mxPoint x="762" y="295" />
            </Array>
          </mxGeometry>
        </mxCell>
        <mxCell id="R4jxrmjICBG2XdQICs0V-57" value="" style="endArrow=classic;html=1;exitX=0.5;exitY=1;exitDx=0;exitDy=0;entryX=0.5;entryY=0;entryDx=0;entryDy=0;" edge="1" parent="1" source="R4jxrmjICBG2XdQICs0V-30" target="R4jxrmjICBG2XdQICs0V-44">
          <mxGeometry width="50" height="50" relative="1" as="geometry">
            <mxPoint x="660" y="220" as="sourcePoint" />
            <mxPoint x="710" y="170" as="targetPoint" />
          </mxGeometry>
        </mxCell>
        <mxCell id="R4jxrmjICBG2XdQICs0V-58" value="Read/Write" style="text;html=1;strokeColor=none;fillColor=none;align=center;verticalAlign=middle;whiteSpace=wrap;rounded=0;" vertex="1" parent="1">
          <mxGeometry x="692" y="190" width="40" height="20" as="geometry" />
        </mxCell>
        <mxCell id="R4jxrmjICBG2XdQICs0V-59" value="" style="rounded=1;whiteSpace=wrap;html=1;" vertex="1" parent="1">
          <mxGeometry x="612" y="525" width="138" height="125" as="geometry" />
        </mxCell>
        <mxCell id="R4jxrmjICBG2XdQICs0V-60" value="PipeLine" style="text;html=1;strokeColor=none;fillColor=none;align=center;verticalAlign=middle;whiteSpace=wrap;rounded=0;" vertex="1" parent="1">
          <mxGeometry x="662" y="525" width="40" height="20" as="geometry" />
        </mxCell>
        <mxCell id="R4jxrmjICBG2XdQICs0V-62" value="ChannelHandler" style="rounded=1;whiteSpace=wrap;html=1;" vertex="1" parent="1">
          <mxGeometry x="632" y="545" width="98" height="25" as="geometry" />
        </mxCell>
        <mxCell id="R4jxrmjICBG2XdQICs0V-63" value="ChannelHandler" style="rounded=1;whiteSpace=wrap;html=1;" vertex="1" parent="1">
          <mxGeometry x="634" y="610" width="98" height="25" as="geometry" />
        </mxCell>
        <mxCell id="R4jxrmjICBG2XdQICs0V-64" value="..." style="text;html=1;strokeColor=none;fillColor=none;align=center;verticalAlign=middle;whiteSpace=wrap;rounded=0;" vertex="1" parent="1">
          <mxGeometry x="661" y="577.5" width="40" height="20" as="geometry" />
        </mxCell>
        <mxCell id="R4jxrmjICBG2XdQICs0V-67" value="" style="endArrow=classic;html=1;entryX=0.5;entryY=0;entryDx=0;entryDy=0;" edge="1" parent="1" source="R4jxrmjICBG2XdQICs0V-48" target="R4jxrmjICBG2XdQICs0V-60">
          <mxGeometry width="50" height="50" relative="1" as="geometry">
            <mxPoint x="650" y="490" as="sourcePoint" />
            <mxPoint x="700" y="440" as="targetPoint" />
          </mxGeometry>
        </mxCell>
        <mxCell id="R4jxrmjICBG2XdQICs0V-68" value="Netty内部业务处理" style="text;html=1;strokeColor=none;fillColor=none;align=center;verticalAlign=middle;whiteSpace=wrap;rounded=0;" vertex="1" parent="1">
          <mxGeometry x="690" y="460" width="110" height="20" as="geometry" />
        </mxCell>
      </root>
    </mxGraphModel>
  </diagram>
</mxfile>
